<?xml version="1.0" encoding="iso-8859-1"?>
<!-- Uploaded to: SVG Repo, www.svgrepo.com, Generator: SVG Repo Mixer Tools -->
<svg version="1.1" id="Layer_1" xmlns="http://www.w3.org/2000/svg" xmlns:xlink="http://www.w3.org/1999/xlink" 
	 viewBox="0 0 340.538 340.538" xml:space="preserve">
<g>
	<polygon style="fill:#FFDB77;" points="170.269,18.779 333.035,141.93 7.503,141.93 	"/>
	<rect x="31.656" y="141.93" style="fill:#28D2E4;" width="48.305" height="116.848"/>
	<rect x="146.116" y="141.93" style="fill:#28D2E4;" width="48.305" height="116.848"/>
	<rect x="260.577" y="141.93" style="fill:#28D2E4;" width="48.305" height="116.848"/>
	<rect x="31.656" y="258.779" style="fill:#FFDB77;" width="277.226" height="31.49"/>
	<rect x="7.503" y="290.269" style="fill:#FFDB77;" width="325.531" height="31.49"/>
	<g>
		<path style="fill:#22313F;" d="M333.035,282.769h-16.652v-23.99V149.43h16.652c7.163,0,10.251-9.148,4.525-13.481L174.794,12.798
			c-2.677-2.025-6.374-2.025-9.051,0L2.978,135.949c-5.729,4.334-2.632,13.481,4.525,13.481h16.653v109.349v23.99H7.503
			c-4.142,0-7.5,3.357-7.5,7.5v31.49c0,4.143,3.358,7.5,7.5,7.5h325.531c4.143,0,7.5-3.357,7.5-7.5v-31.49
			C340.535,286.126,337.177,282.769,333.035,282.769z M301.382,251.279h-33.306V149.43h33.306V251.279z M201.921,251.279V149.43
			h51.155v101.849L201.921,251.279L201.921,251.279z M87.461,251.279V149.43h51.155v101.849L87.461,251.279L87.461,251.279z
			 M153.616,149.43h33.305v101.849h-33.305V149.43z M170.269,28.184L310.692,134.43c-8.524,0-256.406,0-280.846,0L170.269,28.184z
			 M72.461,149.43v101.849H39.156V149.43H72.461z M39.156,266.279c12.141,0,251.62,0,262.226,0v16.49H39.156V266.279z
			 M325.535,314.259H15.003v-16.49c11.923,0,300.356,0,310.531,0v16.49H325.535z"/>
		<path style="fill:#22313F;" d="M170.269,115.279c12.683,0,23-10.317,23-23s-10.317-23-23-23c-12.682,0-23,10.317-23,23
			C147.269,104.961,157.587,115.279,170.269,115.279z M170.269,84.279c4.411,0,8,3.589,8,8s-3.589,8-8,8s-8-3.589-8-8
			C162.269,87.867,165.858,84.279,170.269,84.279z"/>
	</g>
</g>
</svg>